Coordinates
version=1
nRows=33
nColumns=38
inDegrees=no

Units are S.I. units (second, meters, Newtons, ...)
If the header above contains a line with 'inDegrees', this indicates whether rotational values are in degrees (yes) or radians (no).

endheader
time	pelvis_tilt	pelvis_list	pelvis_rotation	pelvis_tx	pelvis_ty	pelvis_tz	hip_flexion_r	hip_adduction_r	hip_rotation_r	knee_angle_r	ankle_angle_r	subtalar_angle_r	mtp_angle_r	hip_flexion_l	hip_adduction_l	hip_rotation_l	knee_angle_l	ankle_angle_l	subtalar_angle_l	mtp_angle_l	lumbar_extension	lumbar_bending	lumbar_rotation	arm_flex_r	arm_add_r	arm_rot_r	elbow_flex_r	pro_sup_r	wrist_flex_r	wrist_dev_r	arm_flex_l	arm_add_l	arm_rot_l	elbow_flex_l	pro_sup_l	wrist_flex_l	wrist_dev_l
0.99	0.0503777	0.0149616	0.0877537	0.931398	1.01781	-0.322089	0.476568	-0.219767	-0.328595	-1.60295	0.0720701	0.0200204	0.000164369	-0.065127	0.0575772	-0.101589	-0.571978	0.394789	0.0206575	0.00105776	-0.287269	0.0142582	-0.143404	-0.519278	-0.259479	0.0376221	1.89798	1.59246	0.0017308	0.0200989	-0.202712	-0.196334	0.00777172	2.24565	1.54598	0.0151051	0.00682351
1	0.0426574	-0.00131204	0.0821449	0.933514	1.02459	-0.321586	0.501646	-0.200071	-0.343402	-1.53241	0.0722416	0.0200204	0.000164369	-0.115252	0.0373688	-0.114605	-0.511829	0.321961	0.0206575	0.00105776	-0.268971	0.0326503	-0.150195	-0.545888	-0.259635	0.0321904	1.92223	1.57688	0.0017308	0.0200989	-0.193983	-0.191835	0.0243113	2.28356	1.5485	0.0151051	0.00682351
1.01	0.0353685	-0.0169778	0.0762135	0.93596	1.03175	-0.321003	0.519603	-0.179614	-0.360349	-1.45139	0.071024	0.0200204	0.000164369	-0.163158	0.0178841	-0.132922	-0.453598	0.237093	0.0206575	0.00105776	-0.251099	0.0503583	-0.155332	-0.572871	-0.257966	0.0243915	1.94704	1.5621	0.0017308	0.0200989	-0.187893	-0.18695	0.0423313	2.32083	1.55327	0.0151051	0.00682351
1.02	0.0288704	-0.0313819	0.0701954	0.938594	1.03908	-0.320374	0.530379	-0.158695	-0.37789	-1.36064	0.0682209	0.0200204	0.000164369	-0.207901	-0.000155688	-0.156391	-0.400071	0.144448	0.0206575	0.00105776	-0.234521	0.0668556	-0.15901	-0.599498	-0.254372	0.0140377	1.97119	1.54922	0.0017308	0.0200989	-0.183872	-0.18199	0.0619469	2.3563	1.56016	0.0151051	0.00682351
1.03	0.0234855	-0.0439401	0.0643394	0.941278	1.04634	-0.319762	0.534084	-0.137563	-0.394364	-1.2611	0.0636421	0.0200204	0.000164369	-0.248699	-0.0161734	-0.184399	-0.353977	0.0493388	0.0206575	0.00105776	-0.219985	0.0817414	-0.161398	-0.625174	-0.248972	0.00109985	1.99394	1.53894	0.0017308	0.0200989	-0.181394	-0.177244	0.0831794	2.38912	1.56886	0.0151051	0.00682351
1.04	0.019485	-0.0541909	0.0588859	0.943896	1.05333	-0.319224	0.530988	-0.116441	-0.4082	-1.15391	0.0571142	0.0200204	0.000164369	-0.284986	-0.0298226	-0.215922	-0.3178	-0.0424818	0.0206575	0.00105776	-0.208065	0.0947418	-0.162639	-0.649421	-0.242079	-0.0142594	2.01502	1.5316	0.0017308	0.0200989	-0.180013	-0.173	0.105905	2.41876	1.57891	0.0151051	0.00682351
1.05	0.0170655	-0.0618354	0.0540673	0.946358	1.05985	-0.318808	0.52152	-0.0955836	-0.418173	-1.04062	0.0484693	0.0200204	0.000164369	-0.316433	-0.0410473	-0.249625	-0.293583	-0.125567	0.0206575	0.00105776	-0.19913	0.105689	-0.162895	-0.67183	-0.234149	-0.0316514	2.0344	1.52717	0.0017308	0.0200989	-0.179415	-0.169562	0.129793	2.44487	1.5898	0.0151051	0.00682351
1.06	0.0163266	-0.0667613	0.0501004	0.948608	1.06572	-0.318543	0.506272	-0.0753351	-0.423663	-0.923165	0.0375375	0.0200204	0.000164369	-0.342915	-0.050093	-0.283968	-0.28279	-0.195492	0.0206575	0.00105776	-0.193322	0.114506	-0.16238	-0.692017	-0.225727	-0.0504528	2.05211	1.52532	0.0017308	0.0200989	-0.179465	-0.167253	0.154269	2.46729	1.60101	0.0151051	0.00682351
1.07	0.0172702	-0.0690636	0.0471465	0.950622	1.07083	-0.318432	0.486004	-0.0561283	-0.424799	-0.804011	0.0241727	0.0200204	0.000164369	-0.364459	-0.0574658	-0.317323	-0.28623	-0.24936	0.0206575	0.00105776	-0.190577	0.121223	-0.16133	-0.709607	-0.217406	-0.0698492	2.06818	1.52541	0.0017308	0.0200989	-0.180212	-0.166391	0.17853	2.48592	1.61205	0.0151051	0.00682351
1.08	0.0198223	-0.069067	0.0452457	0.952397	1.07507	-0.318454	0.46164	-0.03841	-0.42244	-0.68613	0.00833121	0.0200204	0.000164369	-0.381197	-0.0638538	-0.348095	-0.304052	-0.286015	0.0206575	0.00105776	-0.190696	0.126028	-0.159887	-0.724273	-0.209773	-0.0889531	2.08259	1.5266	0.0017308	0.0200989	-0.181849	-0.167234	0.20164	2.50071	1.62246	0.0151051	0.00682351
1.09	0.0238745	-0.0673448	0.0442548	0.95394	1.07837	-0.318574	0.434249	-0.0225114	-0.41797	-0.57296	-0.00980242	0.0200204	0.000164369	-0.393337	-0.070039	-0.37488	-0.335813	-0.305947	0.0206575	0.00105776	-0.193444	0.129339	-0.157901	-0.735849	-0.203342	-0.107002	2.0953	1.52797	0.0017308	0.0200989	-0.18459	-0.169933	0.222728	2.51161	1.63183	0.0151051	0.00682351
1.1	0.0292498	-0.0645802	0.0438754	0.955278	1.0807	-0.318745	0.405091	-0.00862382	-0.412938	-0.468224	-0.029704	0.0200204	0.000164369	-0.401037	-0.076745	-0.396582	-0.380548	-0.311088	0.0206575	0.00105776	-0.198482	0.131665	-0.155126	-0.744199	-0.198608	-0.123257	2.10622	1.52864	0.0017308	0.0200989	-0.188756	-0.17452	0.240942	2.51859	1.63989	0.0151051	0.00682351
1.11	0.0356688	-0.0614467	0.0437214	0.95643	1.08205	-0.318911	0.375593	0.0032121	-0.408661	-0.375687	-0.0504259	0.0200204	0.000164369	-0.40434	-0.0845356	-0.412529	-0.436917	-0.304395	0.0206575	0.00105776	-0.205363	0.133505	-0.151313	-0.749188	-0.196036	-0.137023	2.11514	1.52788	0.0017308	0.0200989	-0.194748	-0.180926	0.2555	2.52164	1.64653	0.0151051	0.00682351
1.12	0.0427771	-0.0585665	0.0433907	0.957394	1.08239	-0.31902	0.347242	0.0131164	-0.405883	-0.29887	-0.0705786	0.0200204	0.000164369	-0.403201	-0.0937861	-0.422575	-0.503393	-0.289291	0.0206575	0.00105776	-0.213622	0.135326	-0.146152	-0.750772	-0.195958	-0.147817	2.12191	1.52527	0.0017308	0.0200989	-0.202887	-0.189009	0.265885	2.52079	1.65175	0.0151051	0.00682351
1.13	0.0501682	-0.0564026	0.0425747	0.958154	1.08172	-0.319018	0.321478	0.0212728	-0.404598	-0.240722	-0.0884195	0.0200204	0.000164369	-0.397484	-0.104632	-0.427024	-0.578371	-0.269132	0.0206575	0.00105776	-0.222773	0.137419	-0.139475	-0.748889	-0.198599	-0.155284	2.1263	1.52067	0.0017308	0.0200989	-0.213439	-0.198594	0.271778	2.51613	1.65574	0.0151051	0.00682351
1.14	0.0574779	-0.0552493	0.0411109	0.958677	1.08002	-0.318874	0.299538	0.0279161	-0.4041	-0.203345	-0.101973	0.0200204	0.000164369	-0.387039	-0.117008	-0.4265	-0.660278	-0.246693	0.0206575	0.00105776	-0.232389	0.139931	-0.131226	-0.743495	-0.204017	-0.159286	2.12813	1.51415	0.0017308	0.0200989	-0.22651	-0.209496	0.273122	2.50777	1.65879	0.0151051	0.00682351
1.15	0.0643991	-0.0551853	0.0390277	0.95893	1.07729	-0.318561	0.282323	0.0332834	-0.403231	-0.187737	-0.109203	0.0200204	0.000164369	-0.371731	-0.130661	-0.421713	-0.747583	-0.223885	0.0206575	0.00105776	-0.242104	0.142798	-0.121634	-0.734412	-0.212179	-0.159754	2.12714	1.50593	0.0017308	0.0200989	-0.242122	-0.221526	0.269946	2.49589	1.66128	0.0151051	0.00682351
1.16	0.0707165	-0.0561489	0.0365203	0.95889	1.07352	-0.318067	0.270279	0.0376605	-0.400765	-0.193648	-0.108179	0.0200204	0.000164369	-0.351484	-0.145225	-0.413304	-0.838823	-0.201682	0.0206575	0.00105776	-0.251656	0.145843	-0.11114	-0.721343	-0.222956	-0.156695	2.12299	1.49639	0.0017308	0.0200989	-0.260183	-0.234484	0.262341	2.48067	1.66356	0.0151051	0.00682351
1.17	0.076351	-0.0580801	0.0338803	0.95853	1.0687	-0.317393	0.263343	0.041468	-0.395829	-0.219606	-0.0972199	0.0200204	0.000164369	-0.326315	-0.160351	-0.401776	-0.932639	-0.180237	0.0206575	0.00105776	-0.260978	0.148974	-0.100097	-0.704034	-0.236052	-0.150362	2.11542	1.48599	0.0017308	0.0200989	-0.280329	-0.248149	0.250577	2.46226	1.66586	0.0151051	0.00682351
1.18	0.0813058	-0.0609275	0.0314481	0.957821	1.06283	-0.316563	0.261015	0.0451883	-0.388205	-0.263085	-0.0751223	0.0200204	0.000164369	-0.29628	-0.175708	-0.387417	-1.02774	-0.159209	0.0206575	0.00105776	-0.270109	0.152165	-0.0888107	-0.68224	-0.251087	-0.141126	2.10419	1.47527	0.0017308	0.0200989	-0.302026	-0.262267	0.234993	2.44079	1.66832	0.0151051	0.00682351
1.19	0.0856175	-0.0646716	0.0295453	0.956733	1.05596	-0.315647	0.262469	0.0492928	-0.378427	-0.320747	-0.0414539	0.0200204	0.000164369	-0.26143	-0.190997	-0.370334	-1.1229	-0.138095	0.0206575	0.00105776	-0.279157	0.155479	-0.0774064	-0.655838	-0.267596	-0.129504	2.08922	1.46471	0.0017308	0.0200989	-0.32456	-0.276559	0.216041	2.4164	1.67104	0.0151051	0.00682351
1.2	0.0893588	-0.0693651	0.0283918	0.95522	1.04825	-0.314713	0.266549	0.0542059	-0.367594	-0.388627	0.0031386	0.0200204	0.000164369	-0.221877	-0.20596	-0.350585	-1.21687	-0.116477	0.0206575	0.00105776	-0.288339	0.159135	-0.0655463	-0.625074	-0.284947	-0.116351	2.07077	1.45476	0.0017308	0.0200989	-0.346921	-0.290757	0.194483	2.38925	1.67427	0.0151051	0.00682351
1.21	0.0926279	-0.0750269	0.0280603	0.953247	1.04006	-0.313837	0.271787	0.0601901	-0.356971	-0.462255	0.0567748	0.0200204	0.000164369	-0.177831	-0.220278	-0.328286	-1.30834	-0.094189	0.0206575	0.00105776	-0.297906	0.163349	-0.0525415	-0.590549	-0.302402	-0.102737	2.0495	1.44581	0.0017308	0.0200989	-0.367977	-0.304613	0.17131	2.3596	1.67839	0.0151051	0.00682351
1.22	0.0956094	-0.0816026	0.0284569	0.950805	1.03194	-0.313089	0.276388	0.0673038	-0.347588	-0.536862	0.11654	0.0200204	0.000164369	-0.129728	-0.233532	-0.303748	-1.39582	-0.0713397	0.0206575	0.00105776	-0.308139	0.168267	-0.0373568	-0.553308	-0.319099	-0.0899519	2.02657	1.43824	0.0017308	0.0200989	-0.386537	-0.317924	0.14778	2.32788	1.68395	0.0151051	0.00682351
1.23	0.0984887	-0.0888379	0.0293881	0.947941	1.02439	-0.312497	0.278347	0.0752822	-0.33997	-0.607695	0.178995	0.0200204	0.000164369	-0.0782575	-0.245101	-0.277515	-1.4776	-0.0482799	0.0206575	0.00105776	-0.319217	0.173731	-0.0190912	-0.51459	-0.334223	-0.0791129	2.00351	1.43239	0.0017308	0.0200989	-0.401744	-0.330501	0.125095	2.29481	1.6915	0.0151051	0.00682351
1.24	0.101372	-0.0961789	0.030629	0.944727	1.01778	-0.312055	0.275691	0.0835199	-0.334107	-0.670445	0.240781	0.0200204	0.000164369	-0.0243398	-0.254189	-0.250387	-1.55183	-0.0255202	0.0206575	0.00105776	-0.331078	0.179203	0.00266586	-0.475654	-0.347099	-0.0708891	1.98206	1.42851	0.0017308	0.0200989	-0.41334	-0.342143	0.104173	2.26147	1.70131	0.0151051	0.00682351
1.25	0.10423	-0.102818	0.031976	0.941287	1.01232	-0.311755	0.26678	0.0911454	-0.329582	-0.721628	0.299048	0.0200204	0.000164369	0.0309878	-0.259967	-0.223396	-1.61661	-0.00365186	0.0206575	0.00105776	-0.343308	0.183812	0.0276389	-0.437643	-0.357256	-0.0653621	1.96413	1.4268	0.0017308	0.0200989	-0.421787	-0.352638	0.085509	2.22926	1.71313	0.0151051	0.00682351
1.26	0.106868	-0.107821	0.0332615	0.937797	1.00817	-0.311573	0.250571	0.0971806	-0.325767	-0.758827	0.351553	0.0200204	0.000164369	0.0867079	-0.261755	-0.197753	-1.67022	0.0167013	0.0206575	0.00105776	-0.355111	0.186503	0.0548741	-0.401485	-0.364447	-0.0620178	1.95149	1.42736	0.0017308	0.0200989	-0.428225	-0.361765	0.0691344	2.19984	1.72602	0.0151051	0.00682351
1.27	0.10891	-0.110323	0.0343364	0.934456	1.00544	-0.31148	0.226751	0.100744	-0.322016	-0.780742	0.396513	0.0200204	0.000164369	0.141931	-0.259196	-0.174742	-1.71127	0.0349298	0.0206575	0.00105776	-0.365411	0.18626	0.082974	-0.367871	-0.36863	-0.0599008	1.94572	1.43022	0.0017308	0.0200989	-0.434227	-0.369309	0.0547124	2.17492	1.73839	0.0151051	0.00682351
1.28	0.109882	-0.109725	0.0350501	0.931464	1.00418	-0.31145	0.195699	0.101249	-0.317813	-0.787117	0.432363	0.0200204	0.000164369	0.195919	-0.25237	-0.155574	-1.73885	0.0505251	0.0206575	0.00105776	-0.373095	0.18237	0.110576	-0.337397	-0.369912	-0.0579857	1.94801	1.43535	0.0017308	0.0200989	-0.441349	-0.375114	0.0418435	2.15601	1.74826	0.0151051	0.00682351
1.29	0.109315	-0.105774	0.0352678	0.928989	1.00433	-0.311459	0.158342	0.0984778	-0.312901	-0.778548	0.457537	0.0200204	0.000164369	0.248068	-0.241734	-0.141213	-1.75254	0.0631748	0.0206575	0.00105776	-0.377197	0.174539	0.136536	-0.310496	-0.368563	-0.0552413	1.95898	1.44271	0.0017308	0.0200989	-0.450902	-0.379042	0.0301373	2.14421	1.75365	0.0151051	0.00682351
1.3	0.106852	-0.0985706	0.0349292	0.927156	1.00581	-0.311493	0.115942	0.0925362	-0.307364	-0.75628	0.470372	0.0200204	0.000164369	0.297846	-0.227955	-0.132212	-1.75232	0.0728467	0.0206575	0.00105776	-0.377026	0.162895	0.159904	-0.287285	-0.365034	-0.0505624	1.97839	1.45219	0.0017308	0.0200989	-0.463863	-0.380901	0.0191671	2.13995	1.75319	0.0151051	0.00682351
1.31	0.102303	-0.088479	0.0341083	0.926034	1.00849	-0.311546	0.0698931	0.0837653	-0.301671	-0.722007	0.469142	0.0200204	0.000164369	0.344728	-0.211739	-0.128622	-1.7385	0.0798187	0.0206575	0.00105776	-0.372239	0.147907	0.179865	-0.267502	-0.359935	-0.0427471	2.00513	1.46364	0.0017308	0.0200989	-0.480858	-0.380397	0.00844176	2.14298	1.7464	0.0151051	0.00682351
